<svg width="210" height="182" viewBox="0 0 210 182" fill="none" xmlns="http://www.w3.org/2000/svg">
<g clip-path="url(#clip0_0_124)">
<path d="M153.497 141.296C144.505 138.341 127.04 135.282 117.787 134.089C96.3712 131.393 69.4975 132.741 51.0445 146.378C55.3589 148.763 59.1014 148.245 61.1287 148.193C59.5173 152.445 59.8291 155.659 60.8168 159.082C74.1757 143.578 96.7871 141.296 118.047 144.096C125.688 145.082 138.787 147.985 148.559 150.319C174.082 156.385 176.525 132.482 162.594 128.904V124.911V120.504C162.594 117.963 162.646 114.333 162.646 109.563C162.698 105.83 162.698 102.667 162.75 100.126C162.802 97.5334 162.854 95.563 162.906 94.1112C162.958 93.6445 162.75 93.2297 162.438 92.8668C162.126 92.5038 161.71 92.3482 161.191 92.3482H158.851C158.124 92.3482 157.5 92.2964 156.928 92.2964C156.408 92.2964 155.993 92.4519 155.681 92.8149C155.369 93.126 155.213 93.5408 155.265 94.0075C155.317 94.7853 155.421 95.7186 155.473 96.7556C155.525 97.7408 155.577 99.4519 155.629 101.889C155.681 104.378 155.733 107.541 155.785 111.533C155.837 115.474 155.837 118.689 155.733 121.178C155.681 123.615 155.473 125.326 155.369 126.311C155.317 127.089 154.381 127.245 152.302 126.83C150.171 126.415 149.131 125.741 148.923 124.859C148.819 124.289 148.715 122.941 148.715 120.711C148.663 118.482 148.767 115.37 148.819 111.43C148.923 107.489 149.027 104.274 149.079 101.837C149.183 99.3482 149.235 97.689 149.287 96.7556C149.391 95.7186 149.443 94.8371 149.495 94.1112C149.547 93.6445 149.391 93.2297 149.079 92.9186C148.715 92.6075 148.299 92.4001 147.832 92.4001C145.908 92.4519 144.401 92.4519 143.309 92.4519C142.842 92.4001 142.426 92.6075 142.114 92.8668C141.802 93.1779 141.646 93.5408 141.646 93.9556C141.75 95.563 141.802 97.8445 141.802 100.852C141.854 103.859 141.854 107.593 141.854 111.948C141.854 116.252 141.802 119.882 141.75 122.785C141.698 125.689 141.646 127.867 141.542 129.37C141.49 129.785 141.698 130.2 142.01 130.563C142.322 130.926 142.738 131.185 143.205 131.237C145.285 131.652 147.416 132.067 149.495 132.533C152.77 133.311 156.512 133.622 159.787 134.452C166.285 135.593 165.661 145.341 153.497 141.296ZM101.361 115.422C101.257 116.615 101.153 118.222 101.205 120.296C101.309 122.319 101.361 122.682 101.361 123.978C101.413 124.6 101.465 125.17 101.465 125.689C101.517 126.104 101.361 126.415 101.049 126.778C100.686 127.089 100.322 127.245 99.8019 127.245C98.3465 127.348 96.839 127.452 95.3316 127.556C94.8638 127.607 94.448 127.452 94.1361 127.193C93.7722 126.933 93.6683 126.622 93.6683 126.207C93.7722 124.807 93.8242 123.978 93.8762 121.23C93.9282 118.482 93.9801 115.007 93.9801 110.911C93.9801 108.682 93.9801 106.556 93.9282 104.689C96.7351 101.837 99.3861 98.726 101.517 95.4075L101.465 95.7186C101.361 97.0149 101.309 98.8816 101.257 101.267C101.205 103.704 101.153 105.622 101.361 107.126C101.465 107.904 102.557 108.267 104.48 108.163C106.403 108.059 107.495 107.748 107.495 107.178C107.547 105.622 107.391 103.548 107.287 101.059C107.183 98.5705 107.131 96.7038 107.131 95.5112C107.079 94.889 107.079 94.3186 107.027 93.8001C106.975 93.3853 107.183 93.0742 107.495 92.763C107.859 92.4519 108.223 92.3482 108.743 92.3482H110.822H113.369C113.837 92.2964 114.252 92.4519 114.616 92.763C114.928 93.0223 115.084 93.3853 115.084 93.8001C115.032 95.0445 114.98 96.8075 114.928 99.1408C114.876 101.474 114.824 104.326 114.824 107.748C114.772 112.052 114.72 115.526 114.72 118.17C114.72 120.763 114.772 122.526 114.772 123.459C114.824 124.704 114.876 125.845 114.928 126.933C114.98 127.348 114.824 127.659 114.512 127.97C114.148 128.282 113.785 128.385 113.265 128.385H108.846C108.379 128.385 107.963 128.23 107.651 127.97C107.339 127.659 107.183 127.348 107.183 126.933C107.235 126.415 107.287 125.896 107.287 125.326C107.339 124.133 107.391 122.526 107.495 120.452C107.599 118.378 107.755 116.615 107.547 115.267C107.443 114.385 106.195 114.022 104.272 114.126C102.349 114.23 101.517 114.541 101.361 115.422ZM50.2128 136.319C50.2648 135.178 50.3168 133.933 50.4207 132.585C50.5247 130.459 50.6287 128.178 50.6806 125.793C50.7326 123.408 50.7326 121.022 50.7846 118.533C50.8366 116.096 50.8886 113.867 50.8886 111.793C50.8886 109.719 50.8366 107.904 50.7846 106.348C50.7326 104.793 50.7326 103.704 50.6806 103.03C50.5767 102.304 50.4207 101.682 50.2128 101.163C49.9529 100.696 49.5891 100.437 49.0692 100.282C48.6014 100.178 47.198 100.126 46.4183 100.178C43.6113 100.385 43.6113 99.5038 43.6113 97.689C43.6113 97.2223 43.6633 96.7556 43.6633 96.2371C43.7153 95.3556 43.6113 94.6297 43.6113 93.9556C43.6113 93.4371 43.7673 92.9705 44.0791 92.6075C44.391 92.2445 44.8069 92.089 45.3267 92.089C46.99 92.1408 50.2128 92.1408 53.5395 92.089C55.3069 92.089 57.0222 92.0371 58.4777 92.0371C59.5173 94.6297 60.8168 97.0149 62.4282 99.2964C62.0643 99.3482 61.5445 99.3482 60.8687 99.4001C60.141 99.4519 58.9455 99.6593 58.5296 99.8668C58.1138 100.126 57.8539 100.437 57.698 100.748C57.542 101.059 57.49 101.526 57.4381 102.148C57.3861 102.77 57.2821 103.911 57.2821 105.415C57.2821 106.97 57.2821 108.785 57.3341 110.807C57.3341 112.83 57.4381 115.059 57.49 117.445C57.542 119.778 57.594 122.111 57.698 124.393C57.8019 126.674 57.9059 128.748 57.9579 130.667C58.0098 131.859 58.0618 132.896 58.1138 133.778C58.1658 134.245 57.9579 134.711 57.646 135.126C57.3341 135.593 56.9183 135.852 56.4504 136.008C54.943 136.474 53.4356 136.993 51.9801 137.511C51.5123 137.667 51.0965 137.667 50.7846 137.408C50.3688 137.2 50.2128 136.785 50.2128 136.319ZM76.5148 128.385C76.4628 128.541 76.4108 128.696 76.3588 128.852C76.1509 129.526 75.5272 130.096 74.7994 130.252C73.344 130.563 71.8366 130.822 70.3291 131.185C69.7574 131.341 69.2376 131.185 68.9257 130.822C68.6138 130.459 68.5618 129.941 68.7697 129.422C69.4455 127.659 70.1732 125.793 71.2128 123.045C72.2524 120.245 73.292 117.807 73.8638 114.904C75.6311 105.726 62.3762 103.6 58.4257 85.5556C58.3217 85.1927 58.4777 84.8816 58.7895 84.6742C59.1014 84.4667 59.5173 84.363 59.7772 84.6223C66.3787 91.9853 66.5866 92.2445 72.6683 97.4297C76.2029 100.437 77.3985 98.6223 79.9975 101.941C80.8811 98.8816 84.5717 99.6075 88.1584 97.0667C92.9925 93.6445 96.3192 90.3779 102.141 85.4519C102.401 85.1927 102.973 85.5556 103.285 85.763C103.544 86.0223 103.7 86.3334 103.596 86.6964C100.634 96.0816 92.1608 104.015 86.547 108.941C80.1534 114.541 79.3737 120.556 76.5148 128.385ZM122.101 91.6742C123.609 91.6742 125.636 91.726 128.079 91.726C130.99 91.726 133.173 91.726 134.629 91.6742C135.096 91.6223 135.512 91.7779 135.824 92.089C136.136 92.4001 136.344 92.7112 136.344 93.126V96.3927C136.344 96.8075 136.136 97.1186 135.824 97.4297C135.512 97.689 135.096 97.7927 134.629 97.7927C133.589 97.7408 132.394 97.7408 131.042 97.7408C129.015 97.7408 127.767 97.8445 127.403 98.0001C126.988 98.2075 126.78 99.5556 126.676 102.096C126.52 104.689 126.884 106.037 127.663 106.245C129.691 106.348 131.042 106.4 131.822 106.4C132.186 106.452 132.601 106.452 133.121 106.452C133.589 106.452 134.005 106.607 134.369 106.919C134.733 107.23 134.889 107.593 134.889 108.007C134.837 108.63 134.837 109.356 134.837 110.185C134.837 110.911 134.889 111.482 134.889 112C134.889 112.363 134.733 112.726 134.421 112.985C134.109 113.245 133.693 113.348 133.225 113.348C132.861 113.296 132.445 113.245 132.082 113.245C131.094 113.141 129.691 113.089 127.767 113.037C127.247 113.193 126.988 114.541 126.988 117.185C126.988 119.83 127.092 121.385 127.299 121.8C127.507 122.267 128.183 122.526 129.223 122.63C131.614 122.889 133.537 123.045 134.941 123.2C135.408 123.252 135.824 123.459 136.136 123.77C136.448 124.082 136.604 124.445 136.604 124.859C136.604 126.415 136.656 127.659 136.656 128.541C136.656 128.956 136.5 129.267 136.188 129.526C135.876 129.785 135.46 129.837 134.993 129.785C132.705 129.474 130.418 129.215 128.079 129.007C125.74 128.8 123.453 128.645 121.166 128.541C120.698 128.489 120.282 128.333 119.97 128.074C119.606 127.763 119.502 127.452 119.502 127.037C119.554 125.741 119.606 123.667 119.606 120.867C119.658 118.067 119.658 114.593 119.658 110.289C119.658 106.296 119.71 102.926 119.71 100.178C119.71 97.4297 119.658 95.3038 119.606 93.8519C119.398 92.1408 119.346 91.6742 122.101 91.6742Z" fill="url(#paint0_linear_0_124)"/>
<path d="M28.5371 120.141C31.6559 120.141 34.2029 117.6 34.2029 114.489C34.2029 111.378 31.6559 108.837 28.5371 108.837C25.4182 108.837 22.8712 111.378 22.8712 114.489C22.8712 117.6 25.4182 120.141 28.5371 120.141Z" fill="url(#paint1_linear_0_124)"/>
<path d="M181.463 120.141C184.582 120.141 187.129 117.6 187.129 114.489C187.129 111.378 184.582 108.837 181.463 108.837C178.344 108.837 175.797 111.378 175.797 114.489C175.797 117.6 178.344 120.141 181.463 120.141Z" fill="url(#paint2_linear_0_124)"/>
<path d="M186.973 35.9852C186.921 36.9704 186.921 38.163 186.869 39.563C186.817 42.5186 186.765 46.4075 186.765 51.1778C186.765 56.0001 186.713 59.9926 186.713 63.2075C186.713 66.4223 186.713 68.8593 186.765 70.4667C186.817 73.7334 186.869 76.6889 186.921 79.4371C186.973 81.4593 187.077 83.326 187.129 85.1408C187.181 85.6075 186.973 86.0223 186.661 86.3334C186.349 86.6964 185.933 86.8519 185.465 86.8519H181.203C180.735 86.8519 180.319 86.6964 180.007 86.3334C179.696 86.0223 179.54 85.6075 179.54 85.1408C179.592 84.2593 179.644 83.2741 179.644 82.1852C179.696 80.3186 179.696 78.2445 179.748 75.963C179.8 73.6815 179.852 71.5556 179.903 69.5334C179.955 67.5112 180.007 66.0075 179.955 65.0741C179.903 64.1408 179.8 63.6223 179.644 63.6223C179.488 63.5704 179.228 64.0371 178.916 64.8667C178.552 65.9038 178.136 67.3038 177.668 69.1186C177.201 70.8815 176.577 73.7852 175.641 77.7778C174.965 80.7852 174.446 83.1704 174.082 84.9334C173.926 85.7112 173.198 86.2815 172.418 86.2297C171.535 86.1778 170.339 86.1778 168.78 86.1778C168.312 86.1778 167.948 86.0223 167.636 85.7112C167.324 85.4001 167.168 85.0371 167.168 84.5704C167.22 83.2741 167.22 81.3556 167.22 78.8667C167.22 74.9778 167.168 69.6889 167.116 62.9482C167.064 56.2075 166.96 50.9704 166.908 47.1852C166.856 44.6445 166.804 42.7778 166.752 41.5852C166.701 40.8593 167.168 40.1852 167.896 39.926C169.559 39.4075 170.859 38.9926 171.847 38.6815C172.366 38.4741 172.886 38.5778 173.354 38.8889C173.77 39.2 174.03 39.6667 174.03 40.2371C174.03 42.6741 173.978 44.8519 173.978 46.8223C173.978 49.4667 173.926 51.7482 173.874 53.6149C173.822 57.4519 173.77 59.8889 173.822 60.926C173.926 62.0667 174.29 62.0149 174.861 60.7186C175.329 59.7334 175.849 58.1778 176.473 56.1038C177.097 53.9778 177.876 50.6075 178.708 46.0445C179.436 42.1038 179.955 39.1482 180.215 37.126C180.319 36.5556 180.683 36.0371 181.255 35.8297C182.606 35.3112 183.698 34.8963 184.634 34.5334C185.153 34.326 185.725 34.3778 186.193 34.6889C186.765 34.8963 186.973 35.363 186.973 35.9852ZM149.807 71.7112C149.651 73.1112 149.599 74.926 149.651 77.2075C149.755 79.4889 149.755 81.4075 149.807 82.8593C149.807 83.5334 149.859 84.1556 149.911 84.726C149.963 85.1927 149.807 85.6075 149.495 85.9704C149.183 86.3334 148.767 86.489 148.3 86.489H143.985C143.517 86.5408 143.101 86.3334 142.79 85.9704C142.478 85.6593 142.322 85.2445 142.322 84.7778C142.426 83.5852 142.478 81.9778 142.478 79.9556C142.582 76.6889 142.634 72.3334 142.634 66.9408C142.634 61.4964 142.582 57.1408 142.53 53.7704C142.478 51.4371 142.426 49.6223 142.374 48.326C142.322 47.4445 142.946 46.7704 143.777 46.6149C144.817 46.4593 146.272 46.2001 148.092 45.8371C148.611 45.7334 149.131 45.8889 149.495 46.2C149.911 46.563 150.067 46.9778 150.067 47.5482C150.015 48.0667 149.963 48.6371 149.963 49.2593C149.859 50.763 149.807 52.8889 149.755 55.6371C149.703 58.3852 149.651 60.563 149.859 62.2223C149.963 63.1556 151.002 63.4667 152.874 63.1556C154.745 62.8445 155.785 62.3778 155.837 61.6519C155.889 59.7852 155.733 57.4001 155.629 54.4963C155.525 51.5926 155.473 49.4149 155.473 47.963C155.473 47.1334 155.421 46.3556 155.369 45.6815C155.317 44.9038 155.837 44.1778 156.668 43.9704C157.292 43.8149 158.124 43.6075 159.111 43.4C159.839 43.1926 160.515 43.0371 161.087 42.8815C161.606 42.726 162.126 42.8297 162.542 43.1926C162.958 43.5038 163.166 43.9704 163.166 44.5408C163.114 45.6297 163.114 46.9778 163.062 48.6371C163.01 51.8001 162.958 56.0001 162.906 61.2889C162.854 66.5778 162.802 70.7778 162.802 73.9926C162.802 77.1556 162.854 79.3334 162.854 80.4741C162.906 82.0297 162.958 83.4297 163.01 84.7778C163.062 85.2445 162.906 85.6593 162.594 86.0223C162.282 86.3853 161.866 86.5408 161.399 86.5408C159.995 86.5927 158.592 86.5927 157.136 86.5927C156.668 86.5927 156.252 86.3853 155.941 86.0741C155.629 85.763 155.473 85.3482 155.525 84.8297C155.577 84.2593 155.577 83.6371 155.629 82.963C155.681 81.563 155.733 79.6445 155.837 77.2075C155.941 74.7704 156.097 72.7482 155.889 71.1408C155.785 70.1556 154.589 69.7927 152.718 70.0001C150.795 70.2075 149.911 70.7778 149.807 71.7112ZM125.584 73.0075C125.428 74.2519 125.376 75.9112 125.428 78.0371C125.532 80.163 125.532 81.8741 125.584 83.2223C125.584 83.7927 125.636 84.3112 125.688 84.7778C125.74 85.2445 125.532 85.6593 125.22 86.0223C124.908 86.3853 124.493 86.5408 124.025 86.5408H119.762C119.295 86.5408 118.879 86.3853 118.567 86.0223C118.255 85.6593 118.099 85.2964 118.099 84.7778C118.203 83.6889 118.255 82.1852 118.255 80.3704C118.359 77.3112 118.411 73.2667 118.411 68.1852C118.411 63.1038 118.359 59.0075 118.307 55.8445C118.255 53.8223 118.203 52.2149 118.151 50.9704C118.099 50.0371 118.775 49.2593 119.71 49.2593C120.75 49.2075 122.205 49.1038 124.025 48.9482C124.493 48.8963 124.96 49.0519 125.324 49.4149C125.688 49.7778 125.844 50.1926 125.792 50.7112C125.74 51.1778 125.688 51.7482 125.688 52.2667C125.584 53.6667 125.532 55.6371 125.48 58.126C125.376 60.6667 125.376 62.6371 125.584 64.1926C125.688 65.0223 126.728 65.3334 128.599 65.1778C130.47 64.9704 131.51 64.6075 131.562 63.9852C131.614 62.2741 131.458 60.1482 131.354 57.5038C131.25 54.8593 131.198 52.8889 131.198 51.5926C131.198 50.9704 131.146 50.3482 131.146 49.7778C131.094 48.8963 131.718 48.1186 132.601 48.0667C133.225 47.963 133.953 47.9112 134.837 47.8075C135.668 47.7038 136.344 47.6 137.02 47.4963C137.54 47.3926 138.007 47.5482 138.371 47.9112C138.735 48.2741 138.943 48.6889 138.891 49.2075C138.839 50.1926 138.839 51.3334 138.787 52.7852C138.735 55.5852 138.683 59.3186 138.631 63.9852C138.579 68.6519 138.527 72.4371 138.527 75.2889C138.527 78.1408 138.579 80.0075 138.579 81.0445C138.631 82.3408 138.683 83.5334 138.735 84.6223C138.787 85.089 138.579 85.5038 138.267 85.8667C137.955 86.2297 137.54 86.3852 137.072 86.3852H132.861C132.394 86.3852 131.978 86.1778 131.666 85.8667C131.354 85.5556 131.198 85.1408 131.198 84.6223C131.25 84.1556 131.25 83.6371 131.302 83.1186C131.354 81.8741 131.406 80.163 131.51 77.9334C131.614 75.7556 131.77 73.889 131.562 72.4889C131.458 71.5556 130.262 71.2445 128.391 71.3482C126.572 71.6075 125.688 72.126 125.584 73.0075ZM97.4629 84.7778C95.7995 83.5852 94.7599 81.4075 93.9282 78.5038C93.5124 77.0001 93.2005 75.3408 92.9926 73.526C92.7846 71.7112 92.7847 69.1186 92.8886 65.6445C93.0445 62.1704 93.2525 59.8371 93.5124 58.6445C93.9282 57.0371 94.3441 55.5852 94.8639 54.2889C95.3837 53.0445 96.0594 51.9556 96.8391 51.0223C97.6188 50.1408 98.5545 49.5186 99.5941 49.0519C100.634 48.5852 101.881 48.3778 103.285 48.4297C104.636 48.4815 105.884 48.7408 106.923 49.2075C107.963 49.6741 108.899 50.4001 109.678 51.3334C110.458 52.2667 111.134 53.3556 111.653 54.6519C112.173 55.9482 112.641 57.4001 113.005 59.0075C113.265 60.2001 113.525 61.6001 113.629 63.2593C113.785 64.9186 113.837 66.6297 113.837 68.3927C113.785 70.2075 113.681 71.9704 113.473 73.7334C113.265 75.5482 113.005 77.1556 112.537 78.6593C111.705 81.5112 110.51 83.5852 109.002 84.8815C108.639 85.1927 108.275 85.4519 107.859 85.6593C105.26 87.163 106.144 85.6593 104.376 84.3112C103.337 83.5334 101.881 83.1186 100.79 84.0519C99.698 85.1408 98.9183 85.8667 97.4629 84.7778ZM99.5941 68.1334C99.5941 72.3334 99.9059 75.4964 100.478 77.5704C100.998 79.6445 101.933 80.6815 103.285 80.6815C104.584 80.6815 105.52 79.6445 106.092 77.5704C106.663 75.4964 106.975 72.3852 106.975 68.1852C106.975 65.9556 106.871 63.9852 106.715 62.2741C106.559 60.563 106.351 59.1112 106.04 57.9186C105.416 55.5852 104.48 54.3926 103.285 54.3926C102.037 54.3408 101.101 55.5852 100.53 58.0223C100.218 59.2667 100.01 60.7186 99.854 62.3778C99.698 64.0889 99.5941 66.0075 99.5941 68.1334ZM65.8069 75.8593C64.4035 78.4001 63.7277 80.4741 63.2599 81.926C63.1559 82.3408 63 82.8075 62.896 83.2223C62.4802 84.5186 62.3243 84.4149 61.2327 83.326C60.297 82.2889 58.7896 82.2889 57.698 83.0149C56.7624 83.6371 56.2945 84.8297 56.5545 85.9186C56.6584 86.1778 56.5545 86.3334 55.8787 86.3334C55.3069 86.3334 54.7871 86.0741 54.4752 85.6075C54.1634 85.1408 54.1114 84.5704 54.3713 84.0519C55.2549 82.0815 56.2426 79.8001 57.3342 77.2075C58.8416 73.6297 59.9851 71.0371 60.6089 69.3778C61.2327 67.7186 61.5965 66.4741 61.5965 65.5408C61.5965 62.7926 56.8144 54.1334 55.3589 50.763C54.1634 48.0667 52.7079 45.526 51.9282 43.7112C51.7203 43.1408 51.8243 42.4667 52.2401 42C52.6559 41.5334 53.2797 41.326 53.9035 41.4815C55.4109 41.8445 57.698 42.4667 59.2054 42.8297C59.8292 42.9852 60.297 43.6593 60.5569 44.2297C63.8837 51.5926 63.3119 52.8371 67.3144 60.4593C68.9257 63.5186 69.4975 62.8445 69.4975 59.8371C69.4455 57.6075 69.4455 55.5334 69.3936 53.6667C69.3416 51.7482 69.2896 50.0371 69.2376 48.4815C69.1856 47.963 69.3936 47.4963 69.7574 47.1852C70.1733 46.8223 70.6411 46.7186 71.1089 46.7704C72.6163 47.0297 74.1238 47.2371 75.6312 47.4963C76.4629 47.6 77.0346 48.326 77.0346 49.1556C76.9827 50.7112 76.9307 53.2519 76.9307 56.6741C76.9307 58.4889 76.9307 59.9408 76.9827 61.0297C77.0866 63.6223 77.5025 63.9334 79.4257 60.8223C80.3094 59.4223 81.1411 57.7112 81.8688 55.6889C82.9084 52.8889 83.6361 50.7112 84.052 48.9482C84.2599 48.1704 84.9876 47.4963 85.8193 47.6C87.3787 47.7556 88.9381 47.9112 90.4975 48.0149C91.0693 48.0667 91.5371 48.3778 91.797 48.8445C92.0569 49.363 92.0569 49.8815 91.797 50.4001C91.0693 51.8001 90.1856 53.563 89.146 55.7926C87.4307 59.3704 86.3391 62.0149 85.6634 63.726C85.0396 65.4371 84.6757 66.6297 84.6757 67.4075C84.6757 68.1852 84.9876 69.4297 85.6634 70.9852C86.2871 72.5408 87.0149 74.2001 87.8465 75.9112C88.6262 77.6223 89.4579 79.2297 90.1856 80.8371C90.6015 81.8223 91.1213 82.8593 91.6931 84.0001C91.953 84.5186 91.953 85.089 91.5891 85.6075C91.2772 86.126 90.8094 86.3852 90.1856 86.3852H85.4035C84.6757 86.3852 84 85.9186 83.8441 85.1927C83.4802 84.0001 83.0644 82.5482 82.4406 80.889C82.0247 79.7482 81.297 78.2964 80.4134 76.4815C79.7376 75.1334 78.854 73.6297 77.9183 71.9186C77.3985 70.9334 76.9307 70.6741 77.0346 72.2297C77.1386 73.4741 77.0866 75.1334 77.0866 77.3112C77.0347 80.5778 77.0347 83.0667 77.1386 84.6741C77.1906 85.1408 76.9827 85.5556 76.6708 85.8667C76.3589 86.2297 75.9431 86.3852 75.4752 86.3852H70.6931C70.2252 86.3852 69.8094 86.2297 69.4975 85.8667C69.1856 85.5556 69.0297 85.1408 69.0297 84.6741C69.0817 83.1704 69.1337 81.0445 69.1856 78.4001C69.2376 74.563 69.2896 72.2815 69.2896 71.6075C69.1856 69.8964 68.7178 70.726 67.8342 71.9704C67.4183 72.9038 66.6906 74.2519 65.8069 75.8593ZM49.2772 86.4371C47.5619 86.3852 44.599 86.4371 40.3886 86.4371C37.7896 86.4371 35.1386 86.3852 32.5916 86.3852C29.8886 86.3334 27.1856 86.3334 24.4827 86.2815C23.547 86.2815 22.8193 85.5556 22.8713 84.6223C22.8713 83.4297 22.9233 82.3408 22.9233 81.3556V78.8149C22.9233 78.3482 23.0792 77.9334 23.4431 77.6223C23.8069 77.3112 24.2228 77.1556 24.6906 77.2075C25.7302 77.3112 26.3539 77.3112 26.5099 77.2593C26.7698 75.3408 27.0817 72.4889 27.5495 68.6519C28.0173 64.8667 28.5891 60.0964 29.2648 54.4445C29.9406 48.8963 30.4604 44.4889 30.8242 41.2223C30.9802 40.0815 31.0841 39.0445 31.1881 38.163C31.2921 37.3852 31.6559 36.763 32.3317 36.3482C33.0074 35.9334 33.7351 35.8815 34.4629 36.1408C36.4901 36.8667 38.5173 37.5926 40.5445 38.3186C41.4802 38.6297 42.104 39.4075 42.2079 40.3926C42.3119 41.4297 42.4678 42.9334 42.6757 44.7482C43.0396 47.9112 43.5594 52.2149 44.1832 57.6593C44.8589 63.0519 45.4307 67.4593 45.8465 70.9334C46.3143 74.4075 46.6782 76.9482 46.9381 78.5556C47.5619 78.6593 48.3416 78.7112 49.3292 78.763C50.2129 78.8149 50.8886 79.5408 50.8886 80.4223V83.4815V84.7778C50.9406 85.2445 50.7327 85.6593 50.4208 85.9704C50.1609 86.2297 49.745 86.4371 49.2772 86.4371ZM40.4406 78.2445C40.3366 77.3112 40.0247 74.6667 39.453 70.3112C38.8812 65.9038 38.4653 62.4297 38.1535 59.8371C37.8416 57.2964 37.6337 55.2223 37.5297 53.6667C37.4257 52.1112 37.2698 50.8667 37.1138 49.9334C37.0099 49.4149 36.9059 49.2075 36.802 49.2075C36.646 49.2593 36.594 49.4149 36.4901 49.7778C36.2822 50.6075 36.1262 51.7482 35.9183 53.2519C35.7624 54.7556 35.5025 56.726 35.2426 59.2667C34.9307 61.8075 34.6188 65.2815 34.203 69.6371C33.7871 74.0964 33.5272 76.7927 33.3713 77.8297C33.7351 77.9334 34.9307 77.9852 36.9059 78.0889C38.9851 78.1927 40.1287 78.2445 40.4406 78.2445Z" fill="url(#paint3_linear_0_124)"/>
<path d="M47.3019 29.8148C47.4059 29.4 47.5618 29.037 47.7697 28.7259C47.9776 28.363 48.1856 28.0519 48.4974 27.7926C48.7573 27.4815 49.0692 27.2741 49.4331 27.0667C49.745 26.8593 50.1088 26.7037 50.4727 26.6C50.7846 26.4963 51.1484 26.4444 51.5643 26.4444C51.9801 26.4444 52.396 26.4963 52.7598 26.6C53.1757 26.7037 53.5395 26.8593 53.9034 27.0667C54.2673 27.2741 54.5791 27.4815 54.839 27.7407C55.0989 28 55.3588 28.3111 55.5148 28.6741C55.7227 28.9852 55.8786 29.3482 55.9826 29.7111C56.0866 30.0741 56.1385 30.4889 56.1905 30.8519C56.1905 31.2667 56.1385 31.6815 56.0346 32.0444C55.9306 32.4593 55.7747 32.8222 55.5668 33.1852C55.3588 33.5482 55.1509 33.8593 54.891 34.1185C54.6311 34.3778 54.3192 34.637 53.9554 34.7926C53.5915 35 53.2796 35.1556 52.8638 35.2593C52.4999 35.363 52.1361 35.4148 51.7202 35.4148C51.3044 35.4667 50.9405 35.363 50.5247 35.2593C50.1088 35.1556 49.745 35 49.3811 34.7926C49.0692 34.5852 48.7573 34.3778 48.4455 34.1185C48.1336 33.8074 47.9257 33.5482 47.7177 33.1852C47.5098 32.8222 47.3539 32.5111 47.2499 32.0963C47.146 31.7333 47.094 31.3704 47.094 30.9556C47.146 30.6444 47.1979 30.2296 47.3019 29.8148ZM49.0173 30.2815C48.9133 30.6444 48.8613 31.0074 48.9133 31.4222C48.9653 31.7852 49.0692 32.1482 49.2252 32.4593C49.3811 32.7704 49.641 33.0296 49.9009 33.2889C50.2128 33.5482 50.5247 33.7037 50.9405 33.8074C51.3044 33.9111 51.6682 33.9111 52.0841 33.8593C52.4479 33.8074 52.7598 33.6519 53.0717 33.4963C53.3836 33.2889 53.6435 33.0815 53.8514 32.7704C54.0593 32.4593 54.2153 32.1482 54.3192 31.7333C54.4232 31.3185 54.4752 30.9556 54.4232 30.5926C54.3712 30.2296 54.2673 29.8667 54.1113 29.5556C53.9034 29.2444 53.6955 28.9852 53.4356 28.7259C53.1237 28.5185 52.8118 28.363 52.4479 28.2593C52.0321 28.1556 51.6682 28.1556 51.3044 28.2074C50.9405 28.2593 50.6286 28.4148 50.3168 28.5704C50.0049 28.7778 49.745 29.037 49.4851 29.2963C49.2252 29.5556 49.0692 29.8667 49.0173 30.2815ZM62.5321 31.5259C62.5841 31.2148 62.5841 31.0074 62.3762 30.8C62.2202 30.5926 61.9603 30.437 61.7004 30.3852L59.9851 30.0222L59.5692 31.9926L61.2846 32.3556C61.4405 32.4074 61.5965 32.4074 61.7524 32.3556C61.9083 32.3037 62.0123 32.2519 62.1163 32.2C62.2202 32.1482 62.3242 32.0444 62.3762 31.9407C62.4801 31.7852 62.5321 31.6296 62.5321 31.5259ZM59.3093 33.3407L58.8415 35.5704L60.9207 36.037C61.0767 36.0889 61.2326 36.0889 61.3885 35.9852C61.5445 35.9333 61.6484 35.8815 61.7524 35.8296C61.9083 35.7259 61.9603 35.6222 62.0643 35.5185C62.1682 35.363 62.2202 35.2593 62.2202 35.1037C62.2722 34.9482 62.2722 34.7926 62.2202 34.637C62.1682 34.4815 62.1163 34.3259 62.0643 34.2222C62.0123 34.0667 61.9083 33.963 61.8044 33.8593C61.7004 33.7556 61.5445 33.7037 61.3885 33.6519L59.3093 33.3407ZM64.2474 31.837C64.1955 32.1482 64.0395 32.4074 63.8836 32.7185C63.7276 32.9778 63.5197 33.1333 63.3118 33.2889C63.4677 33.4444 63.5717 33.6 63.6757 33.8074C63.7796 34.0148 63.8316 34.1704 63.8836 34.3778C63.9356 34.5333 63.9356 34.7407 63.9356 34.9482C63.9876 35.1556 63.9356 35.363 63.8836 35.5704C63.7796 35.9333 63.6757 36.1926 63.4677 36.5037C63.2598 36.763 63.0519 37.0222 62.792 37.1778C62.5321 37.3852 62.2202 37.4889 61.8564 37.5926C61.5445 37.6963 61.1806 37.6963 60.8168 37.5926L57.1262 36.8148C57.0222 36.8148 56.9702 36.763 56.9182 36.7111C56.8663 36.6074 56.8663 36.5556 56.8663 36.4519L58.5296 28.5185C58.5816 28.4148 58.5816 28.363 58.6856 28.3111C58.7895 28.2593 58.8415 28.2593 58.9455 28.2593L62.3762 28.9333C62.74 29.037 62.9999 29.1407 63.3118 29.2963C63.5717 29.5037 63.7796 29.7111 63.9875 29.9704C64.1955 30.2296 64.2994 30.5407 64.3514 30.8519C64.3514 31.163 64.3514 31.5259 64.2474 31.837ZM67.938 35.6741L70.4331 36.0889L69.7054 32.8741L67.938 35.6741ZM69.3935 30.437C69.4455 30.3852 69.4975 30.3333 69.5494 30.3333C69.6014 30.2815 69.6534 30.2815 69.7574 30.2815L70.4331 30.3852C70.5371 30.437 70.589 30.437 70.641 30.4889C70.693 30.5407 70.693 30.5926 70.745 30.6444L72.8242 39.4074C72.8242 39.4593 72.7722 39.5111 72.7202 39.563C72.6682 39.6148 72.5643 39.6148 72.4603 39.6148L71.3687 39.4074C71.2648 39.4074 71.2128 39.4074 71.2128 39.3556C71.1608 39.3037 71.1608 39.2519 71.1088 39.2L70.745 37.7482L67.0544 37.1259L66.2747 38.3704C66.2227 38.5259 66.1187 38.5259 66.0148 38.5259L64.8192 38.3704C64.7153 38.3704 64.6633 38.3185 64.6113 38.2667C64.5593 38.2148 64.5593 38.163 64.5593 38.1111C64.5593 38.0593 64.9752 37.437 65.7549 36.1926C66.6385 34.8963 67.8341 32.9778 69.3935 30.437ZM76.2549 34.1185C76.3069 33.963 76.3588 33.8074 76.4108 33.7037C76.4628 33.5482 76.5668 33.4444 76.7227 33.3407C76.8267 33.237 76.9826 33.1852 77.1385 33.0815C77.2945 33.0296 77.5024 33.0296 77.6583 33.0296L79.6336 33.2889L79.3217 35.7778L77.2945 35.5185C77.0866 35.4667 76.9306 35.4148 76.7747 35.363C76.6187 35.2593 76.5148 35.1556 76.4628 35.0519C76.3588 34.8963 76.3069 34.7926 76.2549 34.637C76.2549 34.4296 76.2549 34.2741 76.2549 34.1185ZM81.5569 32.2C81.6088 31.9926 81.5049 31.8889 81.297 31.8889L77.7623 31.4741C77.3465 31.4222 76.9826 31.4222 76.6187 31.5778C76.2549 31.6815 75.943 31.837 75.6311 32.0963C75.3712 32.3037 75.1113 32.563 74.9554 32.9259C74.7475 33.237 74.6435 33.6 74.5915 34.0148C74.5395 34.2741 74.5395 34.5333 74.5915 34.7926C74.6435 35.0519 74.6955 35.2593 74.7994 35.4667C74.9034 35.7259 75.0074 35.8815 75.1633 36.0889C75.3192 36.2963 75.4752 36.4519 75.6831 36.6074L73.8118 39.563C73.8118 39.563 73.7598 39.563 73.7598 39.6148V39.6667C73.7598 39.7185 73.7598 39.7704 73.8118 39.8222C73.8638 39.8741 73.9158 39.8741 74.0197 39.9259L75.4232 40.0815C75.5272 40.1333 75.6311 40.0296 75.6831 39.9259L77.3465 37.2296L79.1658 37.437L78.8019 40.237C78.7499 40.3926 78.8539 40.4963 79.0098 40.5482L80.2574 40.7037C80.3093 40.7556 80.4133 40.7037 80.4653 40.6519C80.5173 40.6 80.5692 40.5482 80.5692 40.4444L81.5569 32.2ZM91.4851 35.1556C91.5371 34.8444 91.4331 34.637 91.2252 34.4296C91.0173 34.2741 90.8093 34.1704 90.4975 34.1185L88.7301 34.0148L88.5742 36.037L90.3415 36.1407C90.4975 36.1407 90.6534 36.1407 90.7574 36.0889C90.9133 36.037 91.0173 35.9852 91.1212 35.8815C91.2252 35.7778 91.3291 35.6741 91.3811 35.5704C91.4331 35.4667 91.4851 35.3111 91.4851 35.1556ZM88.5222 37.437L88.3663 39.7185L90.4975 39.8741C90.6534 39.9259 90.8093 39.8741 90.9133 39.8222C91.0692 39.7704 91.1732 39.6667 91.2772 39.6148C91.3811 39.5111 91.4851 39.4074 91.5371 39.2519C91.589 39.0963 91.641 38.9926 91.641 38.837C91.641 38.6815 91.641 38.5259 91.589 38.4222C91.5371 38.2667 91.4851 38.163 91.3811 38.0074C91.2772 37.9037 91.1732 37.8 91.0692 37.7482C90.9133 37.6444 90.8093 37.5926 90.6534 37.5926L88.5222 37.437ZM93.2524 35.2593C93.2004 35.5704 93.1484 35.8815 93.0445 36.1407C92.8885 36.4 92.7326 36.6593 92.5247 36.8148C92.6806 36.9704 92.8366 37.0741 92.9405 37.2296C93.0965 37.3852 93.1484 37.5926 93.2524 37.7482C93.3564 37.9037 93.4084 38.1111 93.4603 38.3185C93.5123 38.5259 93.5123 38.7333 93.5123 38.9407C93.4603 39.3037 93.4083 39.6148 93.2524 39.9259C93.0965 40.237 92.8885 40.4963 92.6286 40.7037C92.3687 40.963 92.1088 41.1185 91.797 41.2222C91.4851 41.3259 91.1732 41.3778 90.8093 41.3778L86.9628 41.1185C86.8588 41.1185 86.7549 41.0667 86.7029 41.0148C86.6509 40.963 86.5989 40.8593 86.5989 40.7556L87.1187 32.6667C87.1187 32.563 87.1707 32.5111 87.2227 32.4074C87.2747 32.3556 87.3786 32.3037 87.4826 32.3556L90.9653 32.563C91.3291 32.6148 91.641 32.6667 91.9529 32.8222C92.2128 32.9778 92.4727 33.1852 92.6806 33.3926C92.8885 33.6 93.0445 33.8593 93.1484 34.1704C93.2004 34.5852 93.2524 34.8963 93.2524 35.2593ZM94.8118 37.2815C94.8118 36.8667 94.8638 36.4519 95.0197 36.0889C95.1237 35.7259 95.2796 35.363 95.4876 35.0519C95.6955 34.6889 95.9554 34.4296 96.2153 34.1185C96.5272 33.8593 96.7871 33.6519 97.1509 33.4444C97.4628 33.237 97.8267 33.1333 98.2425 33.0296C98.6584 32.9259 99.0222 32.8741 99.4381 32.8741C99.8539 32.9259 100.27 32.9778 100.634 33.0815C100.997 33.1852 101.361 33.3407 101.725 33.5482C102.037 33.7556 102.349 33.963 102.609 34.2741C102.869 34.5333 103.077 34.8444 103.285 35.2074C103.493 35.5185 103.596 35.8815 103.7 36.2963C103.804 36.7111 103.856 37.1259 103.856 37.4889C103.804 37.9037 103.752 38.3185 103.648 38.6815C103.493 39.0444 103.337 39.4074 103.181 39.7704C102.973 40.0815 102.713 40.3926 102.453 40.6519C102.193 40.9111 101.881 41.1185 101.517 41.3259C101.153 41.5333 100.79 41.637 100.426 41.7407C100.01 41.8444 99.646 41.8963 99.2301 41.8963C98.8143 41.8444 98.4504 41.7926 98.0346 41.6889C97.6707 41.5852 97.3069 41.4296 96.995 41.2222C96.6311 41.0148 96.3712 40.8074 96.1113 40.4963C95.8514 40.237 95.5915 39.9259 95.4356 39.563C95.2277 39.2 95.1237 38.837 95.0197 38.4741C94.8118 38.1111 94.7598 37.7482 94.8118 37.2815ZM96.5272 37.3333C96.4752 37.7482 96.5791 38.1111 96.6831 38.4741C96.839 38.837 96.995 39.0963 97.2549 39.4074C97.4628 39.6667 97.7747 39.8741 98.0866 40.0296C98.4504 40.1852 98.7623 40.2889 99.1782 40.2889C99.594 40.2889 99.9579 40.237 100.322 40.0815C100.634 39.9259 100.945 39.7704 101.205 39.5111C101.465 39.2519 101.621 38.9926 101.777 38.6296C101.933 38.2667 101.985 37.9037 102.037 37.5407C102.037 37.1259 101.985 36.763 101.829 36.4C101.673 36.037 101.517 35.7778 101.309 35.4667C101.049 35.2074 100.79 35 100.426 34.8444C100.114 34.6889 99.7499 34.5852 99.3341 34.5852C98.9183 34.5852 98.5544 34.637 98.2425 34.7926C97.8786 34.9482 97.6187 35.1556 97.3588 35.4148C97.0989 35.6741 96.891 35.9333 96.7871 36.2963C96.6311 36.5556 96.5272 36.9704 96.5272 37.3333ZM105.156 42.0519C105.052 42.0519 105 42 104.948 41.9482C104.896 41.8963 104.896 41.8444 104.896 41.7407V40.7556C104.896 40.6 105 40.4963 105.156 40.4963C105.26 40.4963 105.364 40.4444 105.468 40.3926C105.572 40.3407 105.676 40.237 105.728 40.1852C105.78 40.0815 105.884 40.0296 105.884 39.9259C105.936 39.8222 105.936 39.7185 105.936 39.6148L105.884 33.3926C105.884 33.2889 105.936 33.237 105.936 33.1852C105.988 33.1333 106.04 33.0815 106.143 33.0815L112.329 33.0296C112.381 33.0296 112.485 33.0815 112.537 33.0815C112.589 33.1333 112.589 33.1852 112.589 33.237L112.693 41.5333C112.693 41.6889 112.589 41.7926 112.433 41.7926H111.238C111.186 41.7926 111.134 41.7926 111.082 41.7407C111.03 41.6889 111.03 41.637 111.03 41.5852L110.926 34.637L107.547 34.6889L107.599 39.2C107.599 39.563 107.547 39.8741 107.443 40.237C107.339 40.6 107.183 40.8593 106.975 41.1704C106.767 41.4296 106.507 41.637 106.247 41.7926C105.884 41.9482 105.572 42.0519 105.156 42.0519ZM114.512 33.3407C114.512 33.237 114.564 33.1852 114.616 33.1333C114.668 33.0815 114.72 33.0296 114.772 33.0296L116.02 32.9778C116.072 32.9778 116.124 33.0296 116.176 33.0815C116.28 33.1333 116.28 33.1852 116.28 33.2889L116.436 36.2963L120.334 36.1407L120.178 33.0815C120.126 32.9778 120.178 32.9259 120.23 32.8741C120.282 32.8222 120.334 32.7704 120.438 32.7704L121.634 32.7185C121.686 32.7185 121.79 32.7185 121.842 32.7704C121.894 32.8222 121.945 32.8741 121.945 32.9778L122.361 41.2222C122.361 41.3778 122.257 41.4815 122.049 41.4815L120.854 41.5333C120.802 41.5333 120.698 41.5333 120.646 41.4815C120.594 41.4296 120.542 41.3778 120.542 41.2741L120.386 37.6963L116.488 37.8519L116.643 41.4296C116.643 41.5333 116.592 41.5852 116.54 41.637C116.488 41.6889 116.436 41.7407 116.332 41.7407L115.136 41.7926C114.98 41.7926 114.876 41.6889 114.876 41.5333L114.512 33.3407ZM126.624 38.0074L129.119 37.8L127.611 34.8444L126.624 38.0074ZM126.78 32.6148C126.78 32.563 126.832 32.5111 126.884 32.4593C126.936 32.4074 127.04 32.4074 127.144 32.3556L127.819 32.3037C127.923 32.3037 127.975 32.3037 128.027 32.3556C128.079 32.4074 128.131 32.4593 128.131 32.5111L132.342 40.4444V40.4963C132.342 40.6 132.29 40.6519 132.29 40.6519C132.238 40.7037 132.134 40.7556 132.03 40.7556L130.886 40.8593C130.782 40.8593 130.73 40.8074 130.73 40.8074C130.678 40.7556 130.626 40.7037 130.626 40.6519L129.95 39.3037L126.208 39.6148L125.74 41.0148C125.688 41.1704 125.636 41.2222 125.532 41.2222L124.285 41.3259C124.181 41.3259 124.129 41.3259 124.077 41.2741C124.025 41.2222 123.973 41.1704 123.973 41.1185C123.973 41.1185 124.233 40.3926 124.648 38.9407C125.168 37.6444 125.844 35.4667 126.78 32.6148ZM141.178 33.3407C141.126 33.0296 140.97 32.8222 140.762 32.7185C140.554 32.563 140.294 32.5111 139.983 32.563L138.215 32.8222L138.527 34.8444L140.243 34.5852C140.398 34.5333 140.554 34.4815 140.658 34.4296C140.762 34.3778 140.866 34.2741 140.97 34.1704C141.074 34.0667 141.126 33.9111 141.126 33.8074C141.178 33.6 141.23 33.4444 141.178 33.3407ZM138.735 36.1407L139.047 38.4222L141.126 38.1111C141.282 38.0593 141.438 38.0074 141.542 37.9556C141.698 37.8519 141.802 37.8 141.854 37.6963C141.958 37.5407 142.01 37.437 142.062 37.2815C142.114 37.1259 142.114 36.9704 142.062 36.8667C142.062 36.7111 142.01 36.5556 141.906 36.4519C141.802 36.2963 141.75 36.1926 141.594 36.0889C141.49 35.9852 141.386 35.9333 141.23 35.8815C141.074 35.8296 140.97 35.8296 140.814 35.8296L138.735 36.1407ZM142.894 33.0296C142.945 33.3407 142.945 33.6519 142.842 33.963C142.738 34.2741 142.634 34.5333 142.478 34.7407C142.634 34.8444 142.79 34.9482 142.945 35.1037C143.101 35.2593 143.205 35.4148 143.361 35.5704C143.465 35.7259 143.569 35.9333 143.621 36.0889C143.725 36.2963 143.777 36.4519 143.777 36.6593C143.829 37.0222 143.829 37.3333 143.725 37.6963C143.621 38.0074 143.465 38.3185 143.309 38.5778C143.101 38.837 142.894 39.0963 142.582 39.2519C142.322 39.4074 142.01 39.563 141.646 39.6148L137.799 40.1333C137.695 40.1852 137.592 40.1333 137.54 40.0815C137.436 40.0296 137.436 39.9778 137.384 39.8741L136.24 31.837C136.24 31.7333 136.24 31.6296 136.292 31.5778C136.344 31.5259 136.448 31.4741 136.5 31.4741L139.983 30.9556C140.346 30.9037 140.658 30.9037 140.97 31.0074C141.282 31.1111 141.542 31.2148 141.802 31.4222C142.062 31.6296 142.27 31.837 142.426 32.0963C142.738 32.4074 142.842 32.7185 142.894 33.0296ZM146.896 33.7556C147.052 33.7037 147.26 33.6 147.416 33.3926C147.624 33.1852 147.78 32.9778 147.884 32.6667C147.936 32.563 147.988 32.4593 148.04 32.3556C148.092 32.2519 148.144 32.2 148.144 32.0963C148.144 31.9926 148.195 31.9407 148.247 31.8889C148.299 31.7852 148.351 31.7333 148.351 31.6815C148.507 31.3704 148.611 31.0593 148.767 30.7482C148.923 30.4889 149.079 30.2296 149.287 30.0222C149.495 29.8148 149.703 29.6593 149.963 29.5037C150.223 29.3482 150.535 29.2444 150.898 29.1926C151.054 29.1407 151.106 29.2444 151.158 29.4L151.366 30.437C151.418 30.5407 151.366 30.5926 151.314 30.6444C151.262 30.6963 151.21 30.7482 151.158 30.7482C150.95 30.8 150.743 30.9037 150.535 31.1111C150.327 31.3185 150.119 31.5778 149.963 31.9407C149.859 32.0963 149.807 32.2519 149.703 32.4593C149.599 32.6148 149.547 32.7704 149.495 32.9259C149.391 33.1333 149.339 33.237 149.287 33.3926C149.183 33.5482 149.131 33.6519 149.079 33.7556L153.549 37.437C153.601 37.4889 153.601 37.4889 153.601 37.5407C153.653 37.5407 153.653 37.5926 153.653 37.5926C153.601 37.6444 153.601 37.6444 153.549 37.6444L151.782 38.0074C151.73 38.0074 151.678 38.0074 151.626 37.9556C151.574 37.9037 151.522 37.9037 151.47 37.9037C151.418 37.8519 151.366 37.8 151.366 37.8C151.314 37.7482 151.262 37.6963 151.21 37.6963L148.04 35.0519C147.936 35.2074 147.78 35.2593 147.624 35.363C147.468 35.4667 147.312 35.5185 147.156 35.5704L147.676 38.5259C147.728 38.6815 147.624 38.7852 147.468 38.837L146.376 39.0444C146.22 39.0963 146.116 38.9926 146.064 38.837L144.661 30.5926C144.609 30.5407 144.661 30.437 144.713 30.3852C144.765 30.3333 144.817 30.2815 144.869 30.2815L146.012 30.0741C146.064 30.0741 146.116 30.0741 146.22 30.1259C146.272 30.1778 146.324 30.2296 146.324 30.2815L146.896 33.7556ZM155.837 37.3852C155.681 37.437 155.577 37.3333 155.525 37.1778L155.265 36.037C155.265 35.9852 155.265 35.9333 155.317 35.8815C155.369 35.8296 155.369 35.7778 155.421 35.7778C155.525 35.7259 155.629 35.7259 155.733 35.6741C155.837 35.6222 155.889 35.5704 155.993 35.5185C156.045 35.4148 156.096 35.363 156.148 35.2074C156.2 35.1037 156.252 34.9482 156.304 34.7407C156.356 34.6889 156.356 34.637 156.356 34.637L156.46 34.0148C155.889 33.1852 155.317 32.4074 154.745 31.5778C154.173 30.8 153.601 29.9704 153.03 29.1407V29.1926C153.03 29.1407 153.03 29.1407 152.978 29.1407C152.978 29.0889 152.926 29.037 152.926 29.037C152.874 28.8815 152.978 28.8296 153.134 28.7778L154.225 28.5185C154.329 28.4667 154.381 28.4667 154.433 28.5185C154.485 28.5704 154.537 28.6222 154.589 28.6741L154.693 28.8296C154.849 29.0889 155.005 29.3482 155.213 29.6074C155.369 29.8667 155.577 30.1778 155.733 30.437C155.889 30.7482 156.096 31.0074 156.252 31.3185C156.46 31.6296 156.616 31.837 156.772 32.0963C156.876 31.4222 156.928 30.7482 156.98 30.0741C157.084 29.4 157.136 28.7259 157.24 28.0519C157.24 27.9482 157.292 27.8963 157.344 27.8444C157.396 27.7926 157.448 27.7407 157.5 27.7407L158.592 27.4815C158.695 27.4296 158.747 27.4815 158.799 27.5333C158.851 27.5852 158.903 27.5852 158.903 27.6889C158.955 27.7407 158.955 27.7407 158.955 27.7926L158.903 27.9482C158.747 29.037 158.592 30.0741 158.436 31.0593C158.28 32.0444 158.124 32.9778 158.02 33.8593C158.02 33.963 157.968 34.0667 157.968 34.2222C157.968 34.3778 157.916 34.5333 157.864 34.6889C157.812 35 157.76 35.3111 157.708 35.6222C157.604 35.9333 157.5 36.1926 157.396 36.4519C157.24 36.7111 157.084 36.9185 156.824 37.0741C156.46 37.1778 156.2 37.3333 155.837 37.3852ZM166.181 26.0815C166.285 26.1333 166.337 26.1333 166.389 26.1852C166.441 26.237 166.441 26.3407 166.441 26.4444L166.129 27.5333C166.077 27.637 166.025 27.6889 165.973 27.7407C165.921 27.7926 165.869 27.7926 165.765 27.7407C165.453 27.637 165.193 27.5852 164.881 27.5333C164.569 27.5333 164.309 27.5852 163.945 27.637C163.582 27.7407 163.27 27.9482 162.958 28.1556C162.698 28.4148 162.438 28.6741 162.282 28.9852C162.126 29.2963 162.022 29.6074 161.97 30.0222C161.918 30.3852 161.97 30.7482 162.074 31.163C162.178 31.5259 162.386 31.8889 162.594 32.2C162.854 32.5111 163.062 32.7185 163.374 32.9259C163.686 33.1333 163.997 33.237 164.361 33.2889C164.725 33.3407 165.089 33.3407 165.505 33.1852C165.817 33.0815 166.077 32.9778 166.337 32.7704C166.596 32.6148 166.804 32.4074 167.012 32.1482C167.064 32.0444 167.168 32.0444 167.22 32.0444C167.272 31.9926 167.324 32.0444 167.428 32.0963L168.26 32.9259C168.364 33.0296 168.364 33.0815 168.364 33.1333C168.364 33.1852 168.312 33.237 168.26 33.2889C168 33.6519 167.688 33.9111 167.272 34.1704C166.856 34.4296 166.441 34.5852 166.025 34.7407C165.609 34.8444 165.193 34.9482 164.829 34.9482C164.413 34.9482 164.049 34.8963 163.634 34.7926C163.27 34.6889 162.906 34.5333 162.542 34.3778C162.23 34.1704 161.918 33.963 161.606 33.7037C161.294 33.4444 161.087 33.1333 160.879 32.7704C160.671 32.4074 160.515 32.0963 160.411 31.6815C160.255 31.2667 160.203 30.9037 160.203 30.4889C160.203 30.0741 160.255 29.7111 160.359 29.3482C160.463 28.9852 160.619 28.6222 160.775 28.2593C160.983 27.8963 161.191 27.5852 161.45 27.3259C161.71 27.0667 162.022 26.8074 162.386 26.6C162.698 26.3926 163.062 26.237 163.478 26.1333C163.945 25.9778 164.361 25.9259 164.829 25.9259C165.297 25.8741 165.765 25.9778 166.181 26.0815ZM171.587 29.5556L173.926 28.7778L171.743 26.2889L171.587 29.5556ZM170.339 24.2667C170.339 24.163 170.391 24.1111 170.391 24.0593C170.443 24.0074 170.495 23.9556 170.599 23.9556L171.223 23.6963C171.327 23.6444 171.379 23.6444 171.431 23.6963C171.483 23.7482 171.535 23.7482 171.587 23.8L177.616 30.4889L177.668 30.5407C177.668 30.5926 177.668 30.6963 177.616 30.7482C177.616 30.8 177.512 30.8519 177.408 30.9037L176.317 31.2667C176.213 31.3185 176.161 31.3185 176.161 31.3185C176.109 31.3185 176.057 31.2667 176.005 31.2148L174.965 30.1259L171.431 31.3185L171.327 32.8222C171.327 32.9778 171.275 33.0296 171.171 33.0815L170.027 33.4963C169.923 33.5482 169.871 33.5482 169.819 33.4963C169.767 33.4963 169.715 33.4444 169.715 33.3407C169.715 33.3407 169.767 32.6148 169.871 31.1111C170.027 29.5556 170.183 27.2741 170.339 24.2667ZM40.1806 22.9704C40.2326 22.9185 40.2846 22.8667 40.3366 22.8148C40.3885 22.8148 40.4405 22.8148 40.4925 22.8148L41.6361 23.2296C41.688 23.2296 41.74 23.2815 41.792 23.3852C41.844 23.437 41.844 23.5407 41.844 23.5926L40.8564 26.4444L44.547 27.6889L45.5346 24.837C45.5866 24.7333 45.6385 24.6815 45.6905 24.6815C45.7945 24.6296 45.8465 24.6296 45.8984 24.6815L46.99 25.0444C47.094 25.0963 47.146 25.1482 47.1979 25.2C47.2499 25.3037 47.2499 25.3556 47.2499 25.4074L44.547 33.1852C44.495 33.3926 44.391 33.3926 44.1831 33.3407L43.0395 32.9778C42.9875 32.9259 42.9356 32.8741 42.8836 32.8222C42.8316 32.7704 42.8316 32.6667 42.8316 32.6148L44.0272 29.2444L40.3366 27.9482L39.141 31.3704C39.089 31.4741 39.089 31.4741 38.9851 31.5259C38.9331 31.5778 38.8291 31.5778 38.7771 31.5259L37.6856 31.1111C37.5296 31.0593 37.4776 30.9556 37.5296 30.8L40.1806 22.9704Z" fill="#785454"/>
</g>
<defs>
<linearGradient id="paint0_linear_0_124" x1="107.318" y1="84.4685" x2="107.318" y2="159.082" gradientUnits="userSpaceOnUse">
<stop stop-color="#2FA1CF"/>
<stop offset="0.739583" stop-color="#359CE4"/>
<stop offset="1" stop-color="#2577BD"/>
</linearGradient>
<linearGradient id="paint1_linear_0_124" x1="28.5371" y1="108.837" x2="28.5371" y2="120.141" gradientUnits="userSpaceOnUse">
<stop stop-color="#89D6F5"/>
<stop offset="1" stop-color="#2577BD"/>
</linearGradient>
<linearGradient id="paint2_linear_0_124" x1="181.463" y1="108.837" x2="181.463" y2="120.141" gradientUnits="userSpaceOnUse">
<stop stop-color="#89D6F5"/>
<stop offset="1" stop-color="#2577BD"/>
</linearGradient>
<linearGradient id="paint3_linear_0_124" x1="105.003" y1="34.4089" x2="105.003" y2="86.8519" gradientUnits="userSpaceOnUse">
<stop stop-color="#FF7255"/>
<stop offset="1" stop-color="#EB6359"/>
</linearGradient>
<clipPath id="clip0_0_124">
<rect width="164.257" height="136.267" fill="white" transform="translate(22.8712 22.8148)"/>
</clipPath>
</defs>
</svg>
