<svg width="25" height="24" viewBox="0 0 25 24" fill="none" xmlns="http://www.w3.org/2000/svg">
<path d="M12.0828 2.75C8.39281 2.75 5.38281 5.76 5.38281 9.45C5.38281 14.03 11.3828 20.77 11.6328 21.05C11.8728 21.32 12.2928 21.32 12.5328 21.05C12.7928 20.77 18.7828 14.03 18.7828 9.45C18.7828 5.76 15.7728 2.75 12.0828 2.75Z" stroke="#999999" stroke-width="1.5" stroke-linecap="round" stroke-linejoin="round"/>
<path d="M12.4681 11.7852C13.7607 11.5795 14.6419 10.3647 14.4361 9.07204C14.2303 7.77936 13.0156 6.89824 11.7229 7.104C10.4302 7.30976 9.54913 8.52449 9.75489 9.81717C9.96065 11.1099 11.1754 11.991 12.4681 11.7852Z" stroke="#999999" stroke-width="1.5" stroke-linecap="round" stroke-linejoin="round"/>
</svg>
